<?xml version="1.0" standalone="no"?><!DOCTYPE svg PUBLIC "-//W3C//DTD SVG 1.1//EN" "http://www.w3.org/Graphics/SVG/1.1/DTD/svg11.dtd"><svg t="1564557984276" class="icon" viewBox="0 0 1024 1024" version="1.1" xmlns="http://www.w3.org/2000/svg" p-id="4226" xmlns:xlink="http://www.w3.org/1999/xlink" width="200" height="200"><defs><style type="text/css"></style></defs><path d="M388.562 512.631c0 8.814 7.154 15.949 15.948 15.949h329.713c8.813 0 15.947-7.135 15.947-15.949 0-8.794-7.134-15.948-15.947-15.948H404.51c-8.795 0-15.948 7.154-15.948 15.948z m345.661 139.62H404.51c-8.794 0-15.948 7.153-15.948 15.948 0 8.813 7.154 15.947 15.948 15.947h329.713c8.813 0 15.947-7.134 15.947-15.947 0-8.795-7.134-15.948-15.947-15.948z m0 156.122H404.51c-8.794 0-15.948 7.153-15.948 15.947 0 8.813 7.154 15.947 15.948 15.947h329.713c8.813 0 15.947-7.134 15.947-15.947 0-8.794-7.134-15.947-15.947-15.947zM404.194 360.482h121.22c8.874 0 16.067-7.193 16.067-16.066 0-8.874-7.193-16.067-16.067-16.067h-121.22c-8.874 0-16.067 7.193-16.067 16.067 0 8.873 7.193 16.066 16.067 16.066z m-0.119-156.003h146.991c8.339 0 15.078-6.739 15.078-15.079 0-8.32-6.739-15.059-15.078-15.059H404.075c-8.32 0-15.059 6.739-15.059 15.059 0 8.34 6.739 15.079 15.059 15.079z" fill="" p-id="4227"></path><path d="M145.901 969.078c-5.059 0.652 5.198 0 0 0zM845.8 56.184H389.353c-67.231 0-121.715 54.504-121.715 121.716v486.88h-91.302c-84.029 0-152.149 68.121-152.149 152.149 0 78.831 44.919 144.422 121.715 152.148h608.597c67.231 0 121.735-54.483 121.735-121.715V357.419c69.444-14.091 121.716-75.472 121.716-149.086-0.001-84.029-68.121-152.149-152.15-152.149zM179.28 935.759h-2.945c-66.994 0-118.632-31.382-118.632-118.829 0-62.646 41.52-116.419 118.632-116.419h91.302v116.715c0.217 58.476-28.438 118.533-88.357 118.533z m664.484-88.396c0 49.82-32.884 86.499-89.266 86.499H253.112c34.149-16.837 48.062-82.329 48.062-116.637V177.899c0-51.402 35.829-91.44 88.179-91.44h121.023c19.269 25.493 31.126 87.467 31.126 121.873 0 34.031-11.562 82.112-30.435 107.467v44.683h332.696v486.881z m2.036-517.315H538.952c23.616-38.694 32.983-89.048 32.983-121.715 0-51.461-15.612-94.187-28.774-121.873H845.8c50.334 0 123.178 36.046 123.178 121.873 0 85.55-72.844 121.715-123.178 121.715z" fill="" p-id="4228"></path></svg>