<?xml version="1.0" standalone="no"?><!DOCTYPE svg PUBLIC "-//W3C//DTD SVG 1.1//EN" "http://www.w3.org/Graphics/SVG/1.1/DTD/svg11.dtd"><svg t="1528268038403" class="icon" style="" viewBox="0 0 1050 1024" version="1.1" xmlns="http://www.w3.org/2000/svg" p-id="2470" xmlns:xlink="http://www.w3.org/1999/xlink" width="205.078125" height="200"><defs><style type="text/css"></style></defs><path d="M525.016949 0C235.068746 0 0 232.604203 0 519.523797 0 763.643661 170.209627 968.330847 399.550915 1024c-0.08678-64.234305-0.269017-186.420068-0.33844-190.880542-0.954576-0.572746-99.518915 56.554305-149.807729-43.363797-6.065898-12.357424-18.275797-53.603797-48.839593-76.71322-1.093424-0.928542-23.673492-12.305356-25.747526-23.50861-0.225627-1.588068 1.466576-4.850983 3.679458-5.649356 2.317017-0.885153 39.476068-15.967458 80.887322 36.039593 12.478915 17.381966 40.656271 84.167593 139.316068 42.87783 2.629424-10.28339 4.547254-27.040542 25.877694-46.140745-146.917966-17.338576-200.608542-67.141424-221.426983-191.409899-12.999593-84.740339 11.992949-155.188068 49.525153-189.952-5.684068-7.410983-24.428475-69.302237 4.703458-134.812203 31.561763-6.265492 89.469831 16.193085 140.357423 52.449627 71.775458-25.669424 206.535593-19.013424 254.750373 0 22.918508-18.753085 104.760407-62.55078 139.871458-52.362847 10.318102 26.02522 25.209492 89.018576 4.634034 134.942372 45.741559 46.583322 58.619661 106.712949 50.375593 180.597153-10.101153 111.963119-67.358373 187.34861-223.015051 200.539119 25.947119 18.136949 49.75078 42.96461 49.75078 85.139525 0 45.307661-0.026034 153.782237-0.04339 215.847051 217.330983-63.557424 375.972881-262.421695 375.972881-498.115254C1050.033898 232.604203 814.982508 0 525.016949 0z" fill="#5B5C5C" p-id="2471"></path></svg>