<?xml version="1.0" standalone="no"?><!DOCTYPE svg PUBLIC "-//W3C//DTD SVG 1.1//EN" "http://www.w3.org/Graphics/SVG/1.1/DTD/svg11.dtd"><svg t="1575792684333" class="icon" viewBox="0 0 1024 1024" version="1.1" xmlns="http://www.w3.org/2000/svg" p-id="1577" xmlns:xlink="http://www.w3.org/1999/xlink" width="200" height="200"><defs><style type="text/css"></style></defs><path d="M420.700109 453.602985 108.456642 453.602985c-16.635889 0-30.092365-13.4575-30.092365-30.093389L78.364277 111.150496c0-16.635889 13.456477-30.092365 30.092365-30.092365l312.243467 0c16.635889 0 30.092365 13.456477 30.092365 30.092365l0 312.360124C450.791451 440.145485 437.335998 453.602985 420.700109 453.602985L420.700109 453.602985z" p-id="1578"></path><path d="M920.455227 453.602985 608.095104 453.602985c-16.636912 0-30.094412-13.4575-30.094412-30.093389L578.000692 111.150496c0-16.635889 13.4575-30.092365 30.094412-30.092365l312.360124 0c16.636912 0 30.091342 13.456477 30.091342 30.092365l0 312.360124C950.546569 440.145485 937.09214 453.602985 920.455227 453.602985L920.455227 453.602985z" p-id="1579"></path><path d="M420.700109 958.87884 108.456642 958.87884c-16.635889 0-30.092365-13.4575-30.092365-30.084179l0-312.251653c0-16.635889 13.456477-30.092365 30.092365-30.092365l312.243467 0c16.635889 0 30.092365 13.456477 30.092365 30.092365l0 312.251653C450.791451 945.42134 437.335998 958.87884 420.700109 958.87884L420.700109 958.87884z" p-id="1580"></path><path d="M920.455227 958.87884 608.095104 958.87884c-16.636912 0-30.094412-13.4575-30.094412-30.084179l0-312.251653c0-16.635889 13.4575-30.092365 30.094412-30.092365l312.360124 0c16.636912 0 30.091342 13.456477 30.091342 30.092365l0 312.251653C950.546569 945.42134 937.09214 958.87884 920.455227 958.87884L920.455227 958.87884z" p-id="1581"></path></svg>