<?xml version="1.0" standalone="no"?><!DOCTYPE svg PUBLIC "-//W3C//DTD SVG 1.1//EN" "http://www.w3.org/Graphics/SVG/1.1/DTD/svg11.dtd"><svg t="1611209488051" class="icon" viewBox="0 0 1024 1024" version="1.1" xmlns="http://www.w3.org/2000/svg" p-id="2637" xmlns:xlink="http://www.w3.org/1999/xlink" width="128" height="128"><defs><style type="text/css"></style></defs><path d="M80 962c0 22.1 17.9 40 40 40h784c22.1 0 40-17.9 40-40V655.7c0-14-11.5-25.8-25.5-25.6-13.6 0.2-24.5 11.4-24.5 25V932c0 11-9 20-20 20H150c-11 0-20-9-20-20V565c0-13.8-11.2-25-25-25s-25 11.2-25 25v397z" p-id="2638"></path><path d="M984 198H40c-22.1 0-40 17.9-40 40v292c0 22.1 17.9 40 40 40h125c13.8 0 25-11.2 25-25s-11.2-25-25-25H70c-11 0-20-9-20-20V268c0-11 9-20 20-20h904v252c0 11-9 20-20 20H849c-13.8 0-25 11.2-25 25v0.1c0 13.8 11.2 25 25 25l135-0.1c22.1 0 40-17.9 40-40V238c0-22.1-17.9-40-40-40z" p-id="2639"></path><path d="M742.4 424.9L453.9 713.4l-145-145c-9.8-9.8-25.6-9.8-35.4 0s-9.8 25.6 0 35.4l162.6 162.6c9.8 9.8 25.6 9.8 35.4 0l306.2-306.2c9.8-9.8 9.8-25.6 0-35.4-9.7-9.7-25.5-9.7-35.3 0.1zM887 204C887 93.5 797.5 4 687 4c-75.3 0-140.9 41.6-175 103.2C477.9 45.6 412.3 4 337 4 226.5 4 137 93.5 137 204h50c0-40.1 15.6-77.7 43.9-106.1C259.2 69.6 296.9 54 337 54s77.7 15.6 106.1 43.9c28.3 28.3 43.9 66 43.9 106.1h50c0-40.1 15.6-77.7 43.9-106.1C609.3 69.6 647 54 687 54s77.7 15.6 106.1 43.9c28.3 28.3 43.9 66 43.9 106.1h50z" p-id="2640"></path></svg>