<?xml version="1.0" standalone="no"?><!DOCTYPE svg PUBLIC "-//W3C//DTD SVG 1.1//EN" "http://www.w3.org/Graphics/SVG/1.1/DTD/svg11.dtd"><svg t="1603532387835" class="icon" viewBox="0 0 1024 1024" version="1.1" xmlns="http://www.w3.org/2000/svg" p-id="4281" xmlns:xlink="http://www.w3.org/1999/xlink" width="128" height="128"><defs><style type="text/css"></style></defs><path d="M742.7 958H188.9C133 958 87.6 912.5 87.6 856.6V167.4C87.6 111.5 133 66 188.9 66h553.8c55.9 0 101.4 45.5 101.4 101.4v277.9h-64V167.4c0-20.6-16.8-37.4-37.4-37.4H188.9c-20.6 0-37.4 16.8-37.4 37.4v689.3c0 20.6 16.8 37.4 37.4 37.4h553.8c20.6 0 37.4-16.8 37.4-37.4V599.5h64v257.1c0 55.9-45.5 101.4-101.4 101.4z" fill="#ffffff" p-id="4282"></path><path d="M552.3 543.9H247.6c-17.7 0-32-14.3-32-32s14.3-32 32-32h304.7c17.7 0 32 14.3 32 32s-14.3 32-32 32zM471.3 671.7H247.6c-17.7 0-32-14.3-32-32s14.3-32 32-32h223.7c17.7 0 32 14.3 32 32s-14.3 32-32 32zM403.3 799.9H247.6c-17.7 0-32-14.3-32-32s14.3-32 32-32h155.7c17.7 0 32 14.3 32 32s-14.3 32-32 32zM535.5 817.3c-8.5 0-16.7-3.4-22.7-9.5-7.3-7.3-10.6-17.8-8.8-28 0.1-0.8 14.6-84.9 18.3-106.7 1.1-6.6 4.2-12.6 8.9-17.3l257.1-257.1c11.2-11.2 27.1-16.2 43.7-13.8 13.4 1.9 26.5 8.6 36.7 18.9l48.2 48.2c10.2 10.2 16.9 23.3 18.9 36.7 2.4 16.6-2.6 32.6-13.8 43.7L664.9 789.6c-4.4 4.4-10.1 7.5-16.2 8.7-22.3 4.6-104.6 18-108 18.5-1.8 0.4-3.5 0.5-5.2 0.5zM583.7 694c-2.3 13.5-5.8 33.9-9 52.5 18.6-3.1 38.8-6.6 51.9-9l242.6-242.6-43.2-43.3L583.7 694zM275.9 234.9v149.5h-24.5v-114c-6.8 4.8-24.1 12.2-24.1 12.2v-24.3c16.1-5.7 24.3-12.1 30.2-23.5h18.4z" fill="#ffffff" p-id="4283"></path><path d="M285.4 393.9h-43.5V286.4c-5.3 2.6-10 4.6-10.9 5l-13.2 5.7v-45.4l6.4-2.2c15.5-5.4 20.9-11 24.9-18.9l2.7-5.1h33.7v168.4z m-24.5-19h5.5V244.4h-3.5c-5.9 9.1-13.9 15.4-26.2 20.5v2.9c3.7-1.8 7.1-3.7 9.2-5.1l15-10.5v122.7zM426.6 253.7c9.2 13.8 13.8 32.5 13.8 55.9s-4.6 42.1-13.8 55.9c-9.9 14.5-23.5 21.8-40.8 21.8-17.6 0-31.2-7.3-40.8-21.8-9.2-13.8-13.8-32.5-13.8-55.9s4.6-42.1 13.8-55.9c9.5-14.5 23.1-21.8 40.8-21.8 17.4 0.1 31 7.3 40.8 21.8z m-66 18.9c-3.4 8.9-5 21.3-5 37.1 0 15.5 1.7 27.9 5 37.1 4.9 13.3 13.3 19.9 25.1 19.9 11.7 0 20.1-6.6 25.1-19.9 3.4-9.2 5-21.6 5-37.1 0-15.8-1.7-28.1-5-37.1-5-13.3-13.4-19.9-25.1-19.9-12 0-20.4 6.6-25.1 19.9z" fill="#ffffff" p-id="4284"></path><path d="M385.7 396.8c-20.9 0-37.3-8.8-48.8-26-10.2-15.3-15.4-35.9-15.4-61.2s5.2-45.8 15.4-61.2c11.3-17.2 27.7-26 48.7-26 20.7 0 37.1 8.7 48.7 26 10.2 15.3 15.4 35.9 15.4 61.2s-5.2 45.8-15.4 61.2l-0.1 0.1c-11.5 17.2-27.9 25.9-48.5 25.9z m0-155.3c-14.4 0-25.2 5.7-32.9 17.5-8.2 12.2-12.3 29.3-12.3 50.7s4.1 38.5 12.2 50.6c7.8 11.8 18.6 17.5 32.9 17.5 14.1 0 24.9-5.8 33-17.6 8.1-12.2 12.2-29.2 12.2-50.6 0-21.4-4.1-38.5-12.2-50.6-7.9-11.8-18.7-17.5-32.9-17.5z m0 134.6c-11.1 0-26.1-4.5-34-26.1-3.8-10.4-5.6-23.6-5.6-40.3 0-17 1.8-30.2 5.6-40.3 7.8-21.6 22.8-26.1 34-26.1 11 0 25.9 4.5 34 26 3.8 10.1 5.6 23.3 5.6 40.4 0 16.8-1.8 30-5.6 40.3v0.1c-8.1 21.5-23 26-34 26z m0-113.9c-5.6 0-11.9 1.6-16.2 13.6v0.1c-2.9 7.8-4.4 19.2-4.4 33.7 0 14.3 1.5 25.7 4.5 33.8 4.5 12.1 11 13.6 16.2 13.6 5.1 0 11.6-1.6 16.2-13.7 2.9-8.1 4.4-19.5 4.4-33.8 0-14.6-1.5-25.9-4.4-33.7-4.7-12-11.1-13.6-16.3-13.6z" fill="#ffffff" p-id="4285"></path><path d="M566.7 253.7c9.2 13.8 13.8 32.5 13.8 55.9s-4.6 42.1-13.8 55.9c-9.9 14.5-23.5 21.8-40.8 21.8-17.6 0-31.2-7.3-40.8-21.8-9.2-13.8-13.8-32.5-13.8-55.9s4.6-42.1 13.8-55.9c9.5-14.5 23.1-21.8 40.8-21.8 17.4 0.1 31 7.3 40.8 21.8z m-65.9 18.9c-3.4 8.9-5 21.3-5 37.1 0 15.5 1.7 27.9 5 37.1 4.9 13.3 13.3 19.9 25.1 19.9 11.7 0 20.1-6.6 25.1-19.9 3.4-9.2 5-21.6 5-37.1 0-15.8-1.7-28.1-5-37.1-5-13.3-13.4-19.9-25.1-19.9-12 0-20.4 6.6-25.1 19.9z" fill="#ffffff" p-id="4286"></path><path d="M525.9 396.8c-20.9 0-37.3-8.8-48.8-26-10.2-15.3-15.4-35.9-15.4-61.2s5.2-45.8 15.4-61.2c11.3-17.2 27.7-26 48.7-26 20.7 0 37.1 8.7 48.7 26 10.2 15.3 15.4 35.9 15.4 61.2s-5.2 45.8-15.4 61.2l-0.1 0.1c-11.6 17.2-28 25.9-48.5 25.9z m0-155.3c-14.4 0-25.2 5.7-32.9 17.5-8.2 12.2-12.3 29.3-12.3 50.7s4.1 38.5 12.2 50.6c7.8 11.8 18.6 17.5 32.9 17.5 14.1 0 24.9-5.8 33-17.6C566.9 348 571 331 571 309.6c0-21.4-4.1-38.5-12.2-50.6-7.9-11.8-18.7-17.5-32.9-17.5z m0 134.6c-11.1 0-26.1-4.5-34-26.1-3.8-10.4-5.6-23.6-5.6-40.3 0-17 1.8-30.2 5.6-40.3 7.8-21.6 22.8-26.1 34.1-26.1 11 0 25.9 4.5 34 26 3.8 10.1 5.6 23.3 5.6 40.4 0 16.8-1.8 30-5.6 40.3v0.1c-8.2 21.5-23.1 26-34.1 26z m0-113.9c-5.6 0-11.9 1.6-16.2 13.6v0.1c-2.9 7.8-4.4 19.2-4.4 33.7 0 14.3 1.5 25.7 4.5 33.8 4.5 12.1 11 13.6 16.2 13.6 5.1 0 11.6-1.6 16.2-13.7 2.9-8.1 4.4-19.5 4.4-33.8 0-14.6-1.5-25.9-4.4-33.7-4.7-12-11.2-13.6-16.3-13.6z" fill="#ffffff" p-id="4287"></path></svg>